<?xml version="1.0" encoding="utf-8"?>
<!-- Generator: Adobe Illustrator 19.2.1, SVG Export Plug-In . SVG Version: 6.00 Build 0)  -->
<svg version="1.1" id="Layer_1" xmlns="http://www.w3.org/2000/svg" xmlns:xlink="http://www.w3.org/1999/xlink" x="0px" y="0px"
	 viewBox="0 0 255.1 99.2" style="enable-background:new 0 0 255.1 99.2;" xml:space="preserve">
<style type="text/css">
	.st0{fill:#FFFFFF;}
	.st1{fill:#0087CA;}
</style>
<path class="st0" d="M59.2,59.2c0-0.6,0.3-0.9,0.9-0.9h10.5c0.8,0,1.6,0.1,2.3,0.2c0.7,0.1,1.2,0.3,1.7,0.6c0.5,0.3,0.8,0.6,1.1,0.9
	c0.3,0.4,0.4,0.8,0.4,1.2v2.7c0,0.5-0.1,0.9-0.4,1.2c-0.3,0.4-0.6,0.7-1.1,0.9c-0.5,0.3-1,0.5-1.7,0.6c-0.7,0.1-1.4,0.2-2.3,0.2
	h-8.9V71c0,0.4-0.1,0.6-0.3,0.7c-0.2,0.1-0.5,0.2-0.9,0.2c-0.4,0-0.7-0.1-0.9-0.2c-0.2-0.1-0.3-0.3-0.3-0.7V59.2z M61.7,60.4v4.7
	h8.7c0.6,0,1.2,0,1.6-0.1c0.4-0.1,0.7-0.1,1-0.3c0.2-0.1,0.4-0.2,0.5-0.4c0.1-0.1,0.1-0.3,0.1-0.5v-2.3c0-0.2,0-0.3-0.1-0.5
	c-0.1-0.1-0.3-0.3-0.5-0.4c-0.2-0.1-0.6-0.2-1-0.3c-0.4-0.1-0.9-0.1-1.6-0.1H61.7z"/>
<path class="st0" d="M102.1,71.8c-3.7,0-5.5-1.1-5.5-3.4v-6.5c0-2.3,1.8-3.4,5.5-3.4h5.4c3.7,0,5.5,1.1,5.5,3.4v6.5
	c0,2.3-1.8,3.4-5.5,3.4H102.1z M107.4,69.8c1.1,0,1.9-0.1,2.4-0.4c0.5-0.3,0.7-0.6,0.7-1v-6.5c0-0.4-0.2-0.7-0.7-1
	c-0.5-0.3-1.3-0.4-2.4-0.4h-5.2c-1.1,0-1.9,0.1-2.4,0.4c-0.5,0.3-0.7,0.6-0.7,1v6.5c0,0.4,0.2,0.7,0.7,1c0.5,0.3,1.3,0.4,2.4,0.4
	H107.4z"/>
<path class="st0" d="M122.6,60.4V71c0,0.4-0.1,0.6-0.3,0.7c-0.2,0.1-0.5,0.2-0.9,0.2c-0.4,0-0.7-0.1-0.9-0.2
	c-0.2-0.1-0.3-0.3-0.3-0.7V60.4h-5.6c-0.3,0-0.5-0.1-0.6-0.3c-0.1-0.2-0.1-0.4-0.1-0.7c0-0.3,0-0.6,0.1-0.8c0.1-0.2,0.3-0.3,0.6-0.3
	h13.6c0.3,0,0.5,0.1,0.6,0.3c0.1,0.2,0.1,0.4,0.1,0.8c0,0.3,0,0.6-0.1,0.7c-0.1,0.2-0.3,0.3-0.6,0.3H122.6z"/>
<path class="st0" d="M135.2,71.8c-3.7,0-5.5-1.1-5.5-3.4v-6.5c0-2.3,1.8-3.4,5.5-3.4h5.4c3.7,0,5.5,1.1,5.5,3.4v6.5
	c0,2.3-1.8,3.4-5.5,3.4H135.2z M140.6,69.8c1.1,0,1.9-0.1,2.4-0.4c0.5-0.3,0.7-0.6,0.7-1v-6.5c0-0.4-0.2-0.7-0.7-1
	c-0.5-0.3-1.3-0.4-2.4-0.4h-5.2c-1.1,0-1.9,0.1-2.4,0.4c-0.5,0.3-0.7,0.6-0.7,1v6.5c0,0.4,0.2,0.7,0.7,1c0.5,0.3,1.3,0.4,2.4,0.4
	H140.6z"/>
<path class="st0" d="M155.7,60.4V71c0,0.4-0.1,0.6-0.3,0.7c-0.2,0.1-0.5,0.2-0.9,0.2c-0.4,0-0.7-0.1-0.9-0.2s-0.3-0.3-0.3-0.7V60.4
	h-5.6c-0.3,0-0.5-0.1-0.6-0.3c-0.1-0.2-0.1-0.4-0.1-0.7c0-0.3,0-0.6,0.1-0.8c0.1-0.2,0.3-0.3,0.6-0.3h13.6c0.3,0,0.5,0.1,0.6,0.3
	c0.1,0.2,0.1,0.4,0.1,0.8c0,0.3,0,0.6-0.1,0.7c-0.1,0.2-0.3,0.3-0.6,0.3H155.7z"/>
<path class="st0" d="M163.1,59.8c-0.3-0.2-0.4-0.5-0.4-0.7c0-0.2,0.1-0.4,0.3-0.5c0.2-0.1,0.5-0.2,1-0.2c0.3,0,0.5,0,0.6,0.1
	c0.1,0.1,0.3,0.1,0.4,0.3l5.9,5.8l5.9-5.8c0.1-0.1,0.3-0.2,0.4-0.3c0.1-0.1,0.4-0.1,0.6-0.1c0.5,0,0.8,0.1,1,0.2
	c0.2,0.1,0.3,0.3,0.3,0.5c0,0.3-0.1,0.5-0.4,0.7l-6.7,6.5V71c0,0.4-0.1,0.6-0.3,0.7c-0.2,0.1-0.5,0.2-0.9,0.2
	c-0.4,0-0.7-0.1-0.9-0.2s-0.3-0.3-0.3-0.7v-4.8L163.1,59.8z"/>
<path class="st0" d="M180.4,59.2c0-0.6,0.3-0.9,0.9-0.9h10.5c0.8,0,1.6,0.1,2.3,0.2c0.7,0.1,1.2,0.3,1.7,0.6
	c0.5,0.3,0.8,0.6,1.1,0.9c0.3,0.4,0.4,0.8,0.4,1.2v2.7c0,0.5-0.1,0.9-0.4,1.2c-0.3,0.4-0.6,0.7-1.1,0.9c-0.5,0.3-1,0.5-1.7,0.6
	c-0.7,0.1-1.4,0.2-2.3,0.2h-8.9V71c0,0.4-0.1,0.6-0.3,0.7c-0.2,0.1-0.5,0.2-0.9,0.2c-0.4,0-0.7-0.1-0.9-0.2
	c-0.2-0.1-0.3-0.3-0.3-0.7V59.2z M182.8,60.4v4.7h8.7c0.6,0,1.2,0,1.6-0.1c0.4-0.1,0.7-0.1,1-0.3c0.2-0.1,0.4-0.2,0.5-0.4
	c0.1-0.1,0.1-0.3,0.1-0.5v-2.3c0-0.2,0-0.3-0.1-0.5s-0.3-0.3-0.5-0.4c-0.2-0.1-0.6-0.2-1-0.3c-0.4-0.1-0.9-0.1-1.6-0.1H182.8z"/>
<path class="st0" d="M201.7,71c0,0.4-0.1,0.6-0.3,0.7c-0.2,0.1-0.5,0.2-0.9,0.2c-0.4,0-0.7-0.1-0.9-0.2c-0.2-0.1-0.3-0.3-0.3-0.7
	V59.2c0-0.4,0.1-0.6,0.3-0.7c0.2-0.1,0.5-0.2,0.9-0.2c0.4,0,0.7,0.1,0.9,0.2c0.2,0.1,0.3,0.3,0.3,0.7V71z"/>
<path class="st0" d="M219.7,71.9c-0.2,0-0.3,0-0.4,0c-0.1,0-0.2,0-0.3-0.1c-0.1,0-0.2-0.1-0.3-0.2c-0.1-0.1-0.2-0.2-0.4-0.3
	l-11.5-9.7V71c0,0.4-0.1,0.6-0.3,0.7c-0.2,0.1-0.5,0.2-0.9,0.2c-0.4,0-0.7-0.1-0.9-0.2c-0.2-0.1-0.3-0.3-0.3-0.7V59.2
	c0-0.3,0.1-0.6,0.3-0.7c0.2-0.1,0.5-0.2,0.9-0.2c0.4,0,0.7,0.1,1,0.2c0.2,0.1,0.5,0.3,0.8,0.5l11.4,9.7v-9.5c0-0.4,0.1-0.6,0.3-0.7
	c0.2-0.1,0.5-0.2,0.9-0.2c0.4,0,0.7,0.1,0.9,0.2c0.2,0.1,0.3,0.3,0.3,0.7V71c0,0.4-0.1,0.6-0.3,0.7
	C220.4,71.8,220.1,71.9,219.7,71.9z"/>
<g>
	<path class="st0" d="M59,36.3c0-2,0.9-3.7,2.6-4.8c1.8-1.2,4.4-1.8,7.8-1.8h14.2c0.7,0,1.1,0.2,1.3,0.5c0.2,0.4,0.3,0.9,0.3,1.7
		c0,0.7-0.1,1.3-0.3,1.6c-0.2,0.4-0.6,0.5-1.3,0.5H69.4c-1.7,0-2.9,0.2-3.7,0.6c-0.8,0.4-1.2,0.9-1.2,1.6v1.1c0,0.7,0.4,1.2,1.2,1.6
		c0.8,0.4,2.1,0.6,3.9,0.6h9.7c4.1,0,7,0.6,8.8,1.8c1.8,1.2,2.7,2.8,2.7,4.9v1.4c0,1.1-0.2,2-0.7,2.8c-0.5,0.8-1.2,1.5-2.2,2.1
		c-1,0.6-2.3,1-3.9,1.3c-1.6,0.3-3.5,0.5-5.7,0.5H60.7c-0.7,0-1.1-0.2-1.3-0.5c-0.2-0.4-0.3-0.9-0.3-1.7c0-0.7,0.1-1.3,0.3-1.6
		c0.2-0.4,0.6-0.5,1.3-0.5h18.6c1.2,0,2.1,0,2.9-0.2c0.8-0.1,1.4-0.2,1.8-0.4s0.8-0.4,0.9-0.7c0.2-0.3,0.3-0.6,0.3-0.9v-1.6
		c0-0.4-0.1-0.7-0.3-0.9c-0.2-0.3-0.5-0.5-0.9-0.7c-0.4-0.2-1-0.4-1.8-0.5c-0.7-0.1-1.7-0.2-2.8-0.2h-9.8c-3.5,0-6.2-0.6-8-1.7
		c-1.8-1.2-2.7-2.7-2.7-4.8V36.3z"/>
	<path class="st0" d="M138.8,54.7c-0.9,0-1.6-0.1-2.1-0.4c-0.5-0.3-0.7-0.8-0.7-1.7V37.4c0-0.9-0.5-1.7-1.5-2.3
		c-1-0.6-2.7-0.9-5.2-0.9h-2.5c-1.2,0-2.2,0.1-3,0.2c-0.8,0.2-1.5,0.4-2,0.7s-0.8,0.6-1.1,1c-0.2,0.4-0.3,0.8-0.3,1.2v15.2
		c0,0.8-0.2,1.4-0.7,1.7c-0.5,0.3-1.2,0.4-2.1,0.4c-1,0-1.7-0.1-2.1-0.4c-0.4-0.3-0.6-0.8-0.6-1.6V37.4c0-0.4-0.1-0.9-0.3-1.2
		c-0.2-0.4-0.6-0.7-1.1-1c-0.5-0.3-1.1-0.5-1.9-0.7c-0.8-0.2-1.8-0.2-3-0.2h-2.5c-2.5,0-4.2,0.3-5.2,0.9c-1,0.6-1.5,1.4-1.5,2.3
		v15.2c0,0.8-0.2,1.4-0.7,1.7c-0.5,0.3-1.2,0.4-2.1,0.4s-1.6-0.1-2.1-0.4C94.2,54,94,53.5,94,52.6V37.4c0-2.6,1-4.5,3-5.7
		c2-1.3,4.7-1.9,8.3-1.9h4.3c3.7,0,6.4,0.7,8.2,2.2c1.8-1.5,4.6-2.2,8.2-2.2h4.3c3.6,0,6.3,0.6,8.3,1.9c2,1.3,3,3.2,3,5.7v15.2
		c0,0.8-0.2,1.4-0.7,1.7C140.5,54.5,139.8,54.7,138.8,54.7z"/>
	<path class="st0" d="M157.3,54.5c-8.3,0-12.4-2.5-12.4-7.6v-2.3c0-5.1,4.1-7.6,12.4-7.6H176v0c0-0.8-0.5-1.5-1.6-2
		c-1.1-0.5-2.9-0.7-5.4-0.7h-21.2c-0.7,0-1.1-0.2-1.3-0.5c-0.2-0.4-0.3-0.9-0.3-1.6c0-0.8,0.1-1.3,0.3-1.7c0.2-0.4,0.6-0.5,1.3-0.5
		h21.4c8.3,0,12.4,2.5,12.4,7.6v9.5c0,5.1-4.1,7.6-12.4,7.6H157.3z M169,50.1c2.5,0,4.2-0.3,5.3-0.9c1.1-0.6,1.7-1.4,1.7-2.3v-5.7
		h-18.6c-2.5,0-4.2,0.3-5.3,0.9c-1.1,0.6-1.7,1.4-1.7,2.3v2.5c0,0.9,0.6,1.6,1.7,2.3c1.1,0.6,2.9,0.9,5.3,0.9H169z"/>
	<path class="st0" d="M199.9,29.8c0.7,0,1.1,0.2,1.3,0.6c0.2,0.4,0.3,0.9,0.3,1.7c0,0.7-0.1,1.3-0.3,1.6c-0.2,0.4-0.6,0.5-1.3,0.5
		h-3.4c-2.2,0-3.7,0.3-4.5,0.8c-0.8,0.6-1.3,1.3-1.3,2.3v15.3c0,0.8-0.2,1.4-0.7,1.7c-0.5,0.3-1.2,0.4-2.1,0.4s-1.6-0.1-2.1-0.4
		c-0.5-0.3-0.7-0.8-0.7-1.7V37.3c0-2.5,1-4.4,2.9-5.7c1.9-1.3,4.8-1.9,8.4-1.9H199.9z"/>
	<path class="st0" d="M207.5,29.8v-5.1c0-0.8,0.2-1.4,0.7-1.7c0.5-0.3,1.1-0.4,2.1-0.4c0.9,0,1.6,0.1,2.1,0.4
		c0.5,0.3,0.7,0.8,0.7,1.7v5.1h13.5c0.7,0,1.1,0.2,1.3,0.6c0.2,0.4,0.3,0.9,0.3,1.7c0,0.7-0.1,1.3-0.3,1.6c-0.2,0.4-0.6,0.5-1.3,0.5
		H213v18.4c0,0.8-0.2,1.4-0.7,1.7c-0.5,0.3-1.2,0.4-2.1,0.4c-0.9,0-1.6-0.1-2.1-0.4c-0.5-0.3-0.7-0.8-0.7-1.7V34.2H205
		c-0.7,0-1.1-0.2-1.3-0.5c-0.2-0.4-0.3-0.9-0.3-1.6c0-0.7,0.1-1.3,0.3-1.7c0.2-0.4,0.6-0.6,1.3-0.6H207.5z"/>
</g>
<path class="st0" d="M94.4,70.9l-5.2-4.2c0.8,0,1.5-0.1,2.2-0.2c0.7-0.1,1.2-0.3,1.7-0.6c0.5-0.3,0.8-0.6,1.1-0.9
	c0.3-0.4,0.4-0.8,0.4-1.2v-2.3c0-0.5-0.1-0.9-0.4-1.2c-0.3-0.4-0.6-0.7-1.1-0.9c-0.5-0.3-1-0.5-1.7-0.6c-0.7-0.1-1.4-0.2-2.3-0.2
	H78.7c-0.6,0-0.9,0.3-0.9,0.9V71c0,0.4,0.1,0.6,0.3,0.7c0.2,0.1,0.5,0.2,0.9,0.2c0.4,0,0.7-0.1,0.9-0.2c0.2-0.1,0.3-0.3,0.3-0.7
	v-4.3v-1.9v-4.4h8.6c0.6,0,1.2,0,1.6,0.1c0.4,0.1,0.7,0.1,1,0.3c0.2,0.1,0.4,0.2,0.5,0.4c0.1,0.1,0.1,0.3,0.1,0.5v2
	c0,0.2,0,0.3-0.1,0.5c-0.1,0.1-0.3,0.3-0.5,0.4c-0.2,0.1-0.6,0.2-1,0.2c-0.4,0.1-0.9,0.1-1.6,0.1h-3.6c-1.7,0-1,0.7-0.4,1.2
	c0.6,0.5,1,0.8,1,0.8l5.2,4.2c0.4,0.4,0.8,0.6,1.2,0.7c0.3,0.1,0.7,0.2,1.1,0.2c0.4,0,0.8-0.1,0.9-0.2
	C94.7,71.5,94.9,71.3,94.4,70.9z"/>
<path class="st0" d="M239.3,64.4c-0.2-0.1-0.5-0.2-0.9-0.2h-5.6c0,0-0.9,0-0.9,0.7c0,0.5,0,0.8,0,0.8s0.1,0.6,0.7,0.6
	c0.5,0,3.3,0,4.6,0v2.1c0,0.4-0.2,0.7-0.7,1c-0.5,0.3-1.3,0.4-2.4,0.4h-5.5c-1.1,0-1.9-0.1-2.4-0.4c-0.5-0.3-0.7-0.6-0.7-1v-6.5
	c0-0.4,0.2-0.7,0.7-1c0.5-0.3,1.3-0.4,2.4-0.4h2.5c0.3,0,0.5-0.1,0.6-0.3c0.1-0.2,0.1-0.4,0.1-0.7c0-0.3,0-0.6-0.1-0.8
	c-0.1-0.2-0.3-0.3-0.6-0.3h-2.6c-3.7,0-5.5,1.1-5.5,3.4v6.5c0,2.3,1.8,3.4,5.5,3.4h5.6c1.8,0,3.2-0.3,4.1-0.8
	c0.9-0.6,1.4-1.4,1.4-2.6v-3.3C239.6,64.7,239.5,64.5,239.3,64.4z"/>
<circle class="st1" cx="17.7" cy="52" r="7"/>
<path class="st1" d="M17.7,18.4v19.8h0c7.6,0,13.7,6.2,13.7,13.7c0,7.6-6.2,13.7-13.7,13.7h0v19.8L51.3,52L17.7,18.4z"/>
</svg>
