<?xml version="1.0" encoding="utf-8"?>
<!-- Generator: Adobe Illustrator 19.2.1, SVG Export Plug-In . SVG Version: 6.00 Build 0)  -->
<svg version="1.1" xmlns="http://www.w3.org/2000/svg" xmlns:xlink="http://www.w3.org/1999/xlink" x="0px" y="0px"
	 viewBox="0 0 350.7 256.8" style="enable-background:new 0 0 350.7 256.8;" xml:space="preserve">
<style type="text/css">
	.st0{display:none;}
	.st1{display:inline;fill:#51162D;}
	.st2{fill:#FFFFFF;}
	.st3{fill:#B43F6B;}
</style>
<g id="BG" class="st0">
	<rect class="st1" width="350.7" height="256.8"/>
</g>
<g id="Header_2">
	<g>
		<path class="st2" d="M262.7,35.7h47.5V222h-47.5v-12.9H296V48.5h-33.3V35.7z"/>
	</g>
	<g>
		<path class="st2" d="M87.8,48.5H54.6v160.6h33.3V222H40.3V35.7h47.5V48.5z"/>
	</g>
	<g>
		<path class="st3" d="M64.2,116.7c0.6-0.6,3.2-3.1,4.1-3.1c0.8,0,1.2,0.6,0.8,1.9l0.2,0.2c7.8-6.8,12.9-14,12.9-16.7
			c0-1.4-0.9-1.9-2.2-1.6c-1.4,0.4-10.6,0.7-28.6,21.8c-5.6,6.6-9.7,15.5-9.7,21.6c0,5.7,2.7,9.1,8.5,9.1c10.1,0,27.8-13.2,35.5-20
			c0.2,4.1-1,5.2-4.1,8.1c-15.7,15.1-29,20-36.6,20c-8.9,0-15.4-5.6-15.4-14.8c0-11.8,9.9-24.5,18.2-32.3
			c6.8-6.5,23.7-19.4,33.3-19.4c4.8,0,8,2.6,8.2,7.6c0.6,10.9-20.2,31.5-30.3,33c-2.3,0.3-4.5-1.3-4.5-3.9c0-2.4,2.2-4.8,3.9-6.3
			L64.2,116.7z"/>
		<path class="st3" d="M88.9,137.3c3.9-3.1,18.6-16,23-16c1.9,0,3.9,2,3.9,3.9c0,1.5-3.2,5.1-4.2,6.2c-5,6-4.7,6.3-4.7,7.1
			c0,1,0.8,1.7,1.8,1.7c2.7,0,8.5-4.3,10.9-5.9l0.4,3.3c-3.7,2.8-13.4,10.7-17.9,10.7c-2.4,0-3.7-2.1-3.7-4.3c0-5.1,5.6-11.2,8.4-15
			l-0.2-0.2c-13.8,9.4-17.8,17.9-20.4,17.9c-2.8,0-3.2-6.3-3.2-8.1c0-5.6,2.1-9.4,4.9-14c9.5-15.7,25.5-29.8,28.2-29.8
			c1.3,0,3.5,0.6,3.5,2.2c0,5.5-25.6,32-30.7,37.1V137.3z"/>
		<path class="st3" d="M126.4,130c-2.8,4.4-6.2,6.5-9.7,10l-0.3-3.5c2.1-1.7,3.8-3.7,5.3-5.9c-1.7-0.2-2.2-0.8-2.2-2.5
			c0-5.8,8.2-11.6,10.1-11.6c0.8,0,1.4,0.6,1.4,1.4c0,0.8-0.2,1.5-0.6,2.3c7.6-1,12-2,12.8-1c1.2,1.5,1.8,2.8,1.9,4.3
			c0,2.5-1.5,3.7-3.4,5.2c-2.3,2-6.3,6-6.3,9.2c0,1.3,1.3,2.3,2.5,2.3c3.5,0,8.5-5.2,11.2-7.2l0.6,3c-3.1,3.5-12.3,12.4-16.9,12.4
			c-3.4,0-5.5-3.1-5.5-6.2c0-5.5,4.2-9.7,7.4-13.6l-0.2-0.2L126.4,130z"/>
		<path class="st3" d="M167.5,137c-3.6,4.4-10.7,11.7-16.8,11.7c-4.7,0-6.9-5.5-6.9-9.6c0-9.8,10.1-19.4,14.9-19.4
			c1.4,0,3.5,0.5,3.5,2.3c0,4-8,11.2-11.3,13.5c-0.6,3.3,0.6,5.1,4.3,5.1c4.3,0,8.4-4.3,11.7-6.6L167.5,137z M159.7,114.6
			c0-3.3,3.9-6.2,7-6.2c1.4,0,2.7,1,2.7,2.5c0,3.2-3,7.2-6.4,7.2C161,118.1,159.7,116.6,159.7,114.6z"/>
		<path class="st3" d="M191.1,133.6l0.8,3.1c-4.9,4.9-13.7,12.2-20.1,11.9c-5.4-0.2-11.3-3.3-12.8-9.2c-0.5,0.5-1,1-1.8,1
			c-0.8,0-1.4-0.8-1.4-1.5c0-1,1.3-2.2,1.9-2.8l17.5-16c0.2-2.7,1.7-5.2,4.6-5.2c2.4,0,2.9,0.7,3.1,3c0.3,3.1,1.5,5.8,1.5,9.3
			c0,6.6-5.3,11.5-10.5,14.6c5.1,0.9,8.3-1.5,12.2-4.5L191.1,133.6z M163.8,135.3c3,0.2,4.7,2.7,6.3,4.7c4.8-3,6.1-4.3,6.4-9
			c-0.2-1.7-0.6-3.9-1-6.6L163.8,135.3z"/>
		<path class="st3" d="M215.9,113.9c-3.8,7.6-4.4,10.6-13.3,10.1c-2.7,3.5-7.3,10.1-7.3,15c0,1.8,0.6,2.8,2.4,2.8
			c2.6,0,5.5-2.4,13.8-8.4l0.4,3.5c-4.7,4.3-13.4,13-20.3,13c-3.1,0-5.1-2.2-5.1-5.4c0-2.7,1-5.7,2.1-8l-0.2-0.2l-4.1,3.3l-0.9-3.1
			c4.8-3.7,9.3-7.8,12.2-12.9c-4.9,0-3.4-0.3-7.6,0.3l0.9-1.4c4.3-7.1,5-8.4,13.6-8.7c2.4-3.3,4.2-7.1,8.9-7.1c1,0,2.6,0.2,2.6,1.5
			c0,1.4-2.3,4.1-3.1,5.2L215.9,113.9z"/>
		<path class="st3" d="M234.6,142.6c-1.9,1.8-4.7,5.1-7.5,5.1c-1.9,0-3.5-1.4-3.5-3.4c-0.1-2.3,1.8-6,7.1-14c0.2-0.2,0.5-0.8,0.5-1
			c0-0.3-0.2-0.6-0.6-0.6c-0.8,0-2.6,1.9-3.1,2.5c-4.2,4.4-8.7,9.3-12.5,13.9c-0.9,1-2,2.3-3.5,2.3c-3.9,0-5-6.3-5-9.2
			c0.1-7.9,8.6-18.7,13.4-18c1.2,0.2,3.6,0.2,3.6,1.9c0,1.6-2.3,4-3.2,5.1c-1.4,1.7-3.2,3.1-4.4,4.9c-0.9,1.2-2.3,2.5-2.3,4.2
			c0,0.2,0.2,0.7,0.6,0.7c0.4,0,1.4-1,1.6-1.3c3.9-4.1,18.3-18.4,23.5-18.4c2.2,0,3.3,1.6,3.3,3.7c0,3.5-5.7,10.1-7.5,13.2l0.2,0.2
			l17.9-14.1c0.8-0.6,2.8-2.3,3.8-2.3c0.6,0,1.4,1.9,1.7,2.3c0.6,0.9,1.4,2.1,1.4,3.2c0,1.4-1.6,3.1-2.5,4.1
			c-6.3,6.9-6.8,8.2-6.8,10.1c-0.1,1,1,2.3,1.9,2c1.7-0.4,2.6-0.4,12.5-7.2l0.5,3.8c-3.8,3-15.4,12.5-19.9,12.5
			c-2.4,0-4.1-2.3-4.1-4.7c0-4,3.9-9.7,6-13l-0.2-0.2L234.6,142.6z"/>
		<path class="st3" d="M273.7,142c-1.5,1.2-6.7,5.4-8.5,5.4c-2.3,0-6.9-5.3-7.1-9.5c-0.3-10.1,20.6-20.4,29.9-20.6
			c3.7-0.1,5.2,2.9,5.2,3.9c0,1-2.1,1.8-2.8,2c1.5,0.6,2.3,1.5,2.3,3.3c0,2.6-7,8.2-7,12c0,1.4,1.2,1.9,2.5,1.9
			c3.4,0,8-4.1,11.4-6.4l0.6,3c-3.5,3.9-14.2,12.6-18.2,12.6c-2.7,0-3.9-1.9-3.9-4.3c0-2.6,1.9-6.8,3-9l-0.2-0.2L273.7,142z
			 M263.9,139.9c0.1,0.4,0.4,1.9,1.6,1.6c1.6-0.3,4.1-0.1,20-16.2l-0.2-0.2C266.3,131.1,263.9,136,263.9,139.9z"/>
		<path class="st3" d="M323.7,133.6l0.8,3.1c-4.9,4.9-13.7,12.2-20.1,11.9c-5.4-0.2-11.3-3.3-12.8-9.2c-0.5,0.5-1,1-1.8,1
			c-0.8,0-1.4-0.8-1.4-1.5c0-1,1.3-2.2,1.9-2.8l17.5-16c0.2-2.7,1.7-5.2,4.6-5.2c2.4,0,2.9,0.7,3.1,3c0.3,3.1,1.5,5.8,1.5,9.3
			c0,6.6-5.3,11.5-10.5,14.6c5.1,0.9,8.3-1.5,12.2-4.5L323.7,133.6z M296.4,135.3c3,0.2,4.7,2.7,6.3,4.7c4.8-3,6.1-4.3,6.4-9
			c-0.2-1.7-0.6-3.9-1-6.6L296.4,135.3z"/>
	</g>
	<polygon class="st2" points="248.7,143.8 109.7,143.8 109.2,145.6 248.2,145.6 	"/>
	<g>
		<path class="st2" d="M117.2,162.5h-7.2c-2.6,0-4.2-0.4-4.9-1.3c-0.3-0.4-0.4-0.7-0.3-1l2.1-7.3c0.6-1,1.7-1.7,3.2-2.1
			c0.5-0.1,0.9-0.1,1.4-0.1c0.5,0,1,0,1.5,0h7h2.3h3l-0.8,1.6h-4h-1.5h-0.6h-5c-1.1-0.1-1.9,0.2-2.5,0.8l-2.3,7.4c0,0.1,0,0.2,0,0.3
			c0.1,0.2,0.5,0.3,1.2,0.3l7.4,0c0.9,0,1.4-0.2,1.6-0.6l1.1-3.1h-4.3l0.6-1.7h4.1h3.8l-0.3,1.1l-1,3.6
			C122.7,161.8,120.8,162.5,117.2,162.5z"/>
		<path class="st2" d="M127.6,160.3L127.6,160.3c0,0.2,0,0.2,0,0.3l-0.6,1.9h-3.9l0.7-2.3l2.1-7.3l0.7-2.3h3.9l-0.6,2.3l-1.4,4.3
			L127.6,160.3z"/>
		<path class="st2" d="M145.2,150.7h4l-10.6,11.8H135l-3.7-11.9h3.8l2.5,8.7L145.2,150.7z"/>
		<path class="st2" d="M161,152.2h-5c-1.1-0.1-1.9,0.2-2.5,0.8l-0.9,2.6h10.3l-0.5,1.6h-10.1l-1,3.1l0,0.1c0,0.1,0,0.2,0,0.2
			c0.1,0.3,0.5,0.4,1.2,0.3l7.4,0l5.8,0l-0.8,1.6h-5h-7.2c-2.6,0-4.2-0.4-4.9-1.3c-0.3-0.4-0.4-0.7-0.3-1l2.1-7.3
			c0.6-1,1.7-1.7,3.2-2.1c0.5-0.1,0.9-0.1,1.4-0.1c0.5,0,1,0,1.5,0h7h2.3h2.9l-0.7,1.6h-5.5H161z"/>
		<path class="st2" d="M181.3,157.2h-10.1l-1,3.1l0,0.1c0,0.1,0,0.2,0,0.2l-0.7,1.9h-4l0.9-2.3l2.1-7.3c0.6-1,1.7-1.7,3.2-2.1
			c0.5-0.1,0.9-0.1,1.4-0.1c0.5,0,1,0,1.5,0h7c0.4,0,0.9,0,1.3,0.1c0.4,0,0.8,0.1,1.1,0.1c0.9,0.3,1.6,0.8,2.1,1.5l0.3,0.7l-1.7,6.6
			l-0.2,0.8l-0.6,2.2h-4.1l0.7-2.2l0.1-0.1L181.3,157.2z M180,152.2h-5c-1.1-0.1-1.9,0.2-2.5,0.8l-0.9,2.6h10.3l0.7-2.6
			c-0.5-0.4-1.1-0.7-1.9-0.8H180z"/>
		<path class="st2" d="M194.1,160.2l2.6-9.6h3.4l-2.2,8.4l-0.1,1.2h4.5l2.3-7.4c0-0.1,0-0.2,0-0.3l0.7-1.9h3.9l-0.8,2.3l-2.2,7.5
			c-0.4,1.4-1.3,2-2.8,2h-15.2c-1.8-0.2-2.9-1-3.3-2.3l2.6-9.5h4l-2.1,7.2l-0.4,1.2c-0.2,0.8,0.4,1.2,2,1.2h1.7H194.1z"/>
		<path class="st2" d="M222,157.2h-10.1l-1,3.1l0,0.1c0,0.1,0,0.2,0,0.2l-0.7,1.9h-4l0.9-2.3l2.1-7.3c0.6-1,1.7-1.7,3.2-2.1
			c0.5-0.1,0.9-0.1,1.4-0.1c0.5,0,1,0,1.5,0h7c0.4,0,0.9,0,1.3,0.1c0.4,0,0.8,0.1,1.1,0.1c0.9,0.3,1.6,0.8,2.1,1.5l0.3,0.7l-1.7,6.6
			l-0.2,0.8l-0.6,2.2h-4.1l0.7-2.2l0.1-0.1L222,157.2z M220.7,152.2h-5c-1.1-0.1-1.9,0.2-2.5,0.8l-0.9,2.6h10.3l0.7-2.6
			c-0.5-0.4-1.1-0.7-1.9-0.8H220.7z"/>
		<path class="st2" d="M245.5,150.7h1.1l-0.7,2.3l-1,2.4c-0.5,1.2-1.5,1.8-2.9,1.8h-4.2l-1.1,3.6l-0.6,1.7h-3.4l1.6-5.3h-4.4
			c-2,0-2.7-0.6-2.2-1.8l1.4-4.8h4l-0.8,2.3l-0.8,2.6h3.2h6.5l1.8-4.8H245.5z"/>
	</g>
</g>
</svg>
